<?xml version="1.0" standalone="no"?>
<!DOCTYPE svg PUBLIC "-//W3C//DTD SVG 20010904//EN"
 "http://www.w3.org/TR/2001/REC-SVG-20010904/DTD/svg10.dtd">
<svg version="1.0" xmlns="http://www.w3.org/2000/svg"
 width="512.000000pt" height="512.000000pt" viewBox="0 0 512.000000 512.000000"
 preserveAspectRatio="xMidYMid meet">

<g transform="translate(0.000000,512.000000) scale(0.100000,-0.100000)"
fill="#000000" stroke="none">
<path d="M1757 5108 c-19 -14 -107 -237 -107 -272 0 -34 23 -49 143 -95 128
-49 160 -51 183 -15 26 38 9 74 -46 100 l-44 21 85 32 c184 70 325 99 535 108
232 10 463 -31 669 -117 125 -53 150 -58 175 -35 20 18 26 60 12 82 -14 21
-173 90 -292 126 -308 93 -626 101 -935 22 -71 -18 -169 -48 -217 -68 -49 -19
-88 -34 -88 -33 0 1 7 24 16 50 16 46 16 49 -3 74 -23 31 -60 39 -86 20z"/>
<path d="M752 5015 c-389 -85 -661 -419 -662 -813 -1 -370 235 -687 595 -802
94 -30 299 -39 401 -17 328 70 581 323 651 651 22 102 13 307 -17 401 -95 298
-335 518 -632 579 -93 19 -250 19 -336 1z m341 -134 c420 -108 645 -562 476
-959 -22 -52 -98 -172 -108 -172 -4 0 -15 24 -25 53 -27 79 -103 185 -174 241
l-62 50 24 25 c41 43 77 133 83 209 20 238 -194 441 -427 405 -160 -25 -277
-130 -317 -286 -26 -103 0 -231 63 -314 25 -32 25 -36 10 -45 -88 -50 -188
-172 -227 -278 -12 -33 -24 -60 -28 -60 -9 0 -66 88 -96 147 -65 132 -84 327
-45 477 62 244 258 442 502 506 100 26 250 26 351 1z m-58 -295 c175 -83 197
-308 40 -428 -57 -44 -76 -78 -58 -107 5 -9 42 -33 81 -54 128 -68 207 -169
234 -300 12 -57 12 -59 -12 -77 -14 -11 -53 -33 -88 -50 -218 -109 -466 -96
-685 34 -48 28 -48 29 -42 70 25 151 109 263 243 323 73 33 92 50 92 82 0 32
-5 39 -58 80 -62 48 -94 109 -99 189 -4 59 -2 73 24 121 65 125 206 175 328
117z"/>
<path d="M4025 5013 c-294 -63 -533 -285 -627 -583 -20 -65 -23 -95 -23 -230
0 -135 3 -165 23 -230 97 -307 329 -522 636 -587 102 -22 307 -13 401 17 360
115 596 432 595 802 -1 396 -274 730 -666 813 -88 19 -248 18 -339 -2z m349
-133 c246 -63 443 -260 506 -506 39 -150 20 -345 -45 -477 -30 -61 -87 -147
-97 -147 -3 0 -12 17 -19 38 -32 99 -101 198 -185 262 l-54 42 24 28 c153 182
84 476 -135 580 -262 124 -557 -79 -537 -369 5 -72 42 -168 80 -208 12 -13 20
-24 17 -26 -74 -52 -127 -98 -158 -137 -40 -51 -84 -134 -96 -183 -4 -15 -11
-27 -15 -27 -11 0 -86 117 -109 172 -126 297 -30 653 228 842 167 123 395 167
595 116z m-39 -304 c158 -93 166 -314 15 -422 -88 -63 -82 -104 23 -157 121
-61 200 -156 233 -282 20 -74 18 -81 -33 -111 -219 -130 -467 -143 -685 -34
-35 17 -74 39 -88 50 -24 18 -24 19 -11 82 28 140 128 257 261 308 90 34 94
77 15 145 -72 61 -105 125 -105 202 1 103 52 185 145 230 68 33 162 28 230
-11z"/>
<path d="M2394 3665 c-305 -47 -589 -228 -755 -480 -61 -92 -81 -132 -118
-238 -95 -270 -77 -575 48 -832 155 -316 430 -525 789 -600 102 -21 304 -19
416 4 l89 18 53 -32 c74 -45 186 -69 283 -62 93 7 246 59 262 89 19 34 7 71
-30 93 -19 11 -54 39 -78 61 -60 57 -58 77 20 166 155 178 244 360 277 570 18
111 8 321 -19 426 -143 549 -681 904 -1237 817z m354 -135 c494 -101 827 -540
781 -1029 -20 -217 -97 -388 -251 -562 -61 -70 -97 -137 -98 -179 0 -46 21
-100 52 -136 17 -19 27 -38 23 -42 -12 -12 -178 -7 -218 6 -20 8 -60 29 -88
49 -57 39 -58 39 -199 8 -87 -20 -265 -22 -362 -5 -190 33 -375 130 -517 270
-117 116 -196 250 -248 417 -25 81 -27 102 -27 258 -1 148 2 180 22 249 76
265 245 475 485 601 201 106 428 140 645 95z"/>
<path d="M2080 2840 c-28 -28 -25 -64 6 -89 26 -21 37 -21 474 -21 437 0 448
0 474 21 31 25 34 61 6 89 -19 19 -33 20 -480 20 -447 0 -461 -1 -480 -20z"/>
<path d="M2086 2379 c-31 -25 -34 -61 -6 -89 19 -19 33 -20 480 -20 447 0 461
1 480 20 28 28 25 64 -6 89 -26 21 -37 21 -474 21 -437 0 -448 0 -474 -21z"/>
<path d="M4802 3462 c-13 -9 -99 -218 -102 -249 -4 -38 1 -53 24 -68 39 -26
75 -10 98 41 10 24 21 44 23 44 6 0 65 -161 86 -235 50 -177 71 -443 50 -621
-17 -138 -62 -311 -111 -429 -53 -125 -58 -150 -35 -175 18 -20 60 -26 82 -12
21 14 90 173 126 292 93 308 101 626 22 935 -18 72 -49 170 -68 219 -35 85
-35 88 -14 81 12 -3 41 -9 63 -12 37 -5 44 -2 59 20 13 20 15 33 8 54 -8 24
-26 35 -124 75 -111 46 -161 56 -187 40z"/>
<path d="M203 3362 c-41 -26 -146 -323 -179 -507 -25 -136 -25 -451 -1 -580
25 -131 61 -261 101 -360 28 -70 32 -85 18 -80 -79 32 -112 28 -134 -19 -20
-45 8 -69 139 -120 131 -51 152 -54 176 -28 14 16 77 166 98 235 10 34 -6 74
-33 83 -40 12 -69 -5 -90 -53 -20 -46 -21 -46 -33 -22 -23 44 -84 233 -99 309
-67 335 -38 661 85 955 52 125 57 150 34 175 -18 20 -60 26 -82 12z"/>
<path d="M805 1740 c-332 -52 -593 -283 -687 -607 -20 -66 -23 -100 -22 -228
1 -141 3 -155 33 -245 76 -226 223 -393 435 -495 271 -130 565 -108 822 61
173 114 295 291 345 502 18 73 20 107 16 217 -6 149 -22 216 -78 332 -130 272
-405 452 -713 467 -50 3 -118 1 -151 -4z m310 -148 c247 -77 428 -266 491
-512 22 -85 22 -244 0 -330 -19 -76 -85 -215 -123 -260 l-26 -32 -22 59 c-12
33 -32 77 -45 99 -32 51 -128 152 -162 170 l-28 14 39 58 c133 195 67 450
-144 556 -72 37 -191 47 -271 23 -223 -66 -335 -318 -234 -523 16 -33 37 -69
45 -81 16 -20 15 -22 -27 -51 -91 -63 -157 -148 -198 -255 l-28 -70 -32 44
c-45 60 -97 174 -115 251 -19 82 -19 245 1 328 32 136 119 276 234 374 68 59
213 130 305 150 90 20 256 14 340 -12z m-80 -291 c85 -37 144 -126 145 -217 0
-97 -38 -165 -133 -237 -63 -48 -49 -88 46 -133 124 -58 230 -197 243 -319 l5
-50 -47 -28 c-211 -126 -466 -139 -679 -35 -34 16 -74 39 -89 52 -28 22 -28
22 -16 81 27 134 114 240 244 301 41 18 76 41 80 50 15 38 5 63 -36 96 -62 48
-85 77 -103 127 -73 212 134 401 340 312z"/>
<path d="M4085 1740 c-277 -43 -517 -218 -634 -463 -56 -116 -72 -183 -78
-332 -4 -110 -2 -144 16 -217 79 -331 338 -576 672 -634 170 -30 333 -6 495
71 212 102 359 269 435 495 30 90 32 104 33 245 1 128 -2 162 -22 228 -84 292
-309 513 -596 587 -93 24 -238 32 -321 20z m253 -136 c97 -19 240 -88 312
-150 115 -98 202 -238 234 -374 20 -83 20 -246 1 -328 -18 -77 -70 -191 -115
-251 l-32 -44 -27 70 c-15 38 -41 89 -58 114 -31 45 -109 122 -152 149 l-23
16 24 29 c172 206 68 531 -194 604 -74 21 -193 10 -262 -23 -207 -101 -279
-368 -151 -555 l34 -50 -32 -20 c-65 -40 -156 -147 -192 -225 -19 -41 -35 -83
-35 -92 0 -35 -48 26 -95 120 -59 119 -78 196 -78 321 0 217 97 419 264 550
169 131 372 181 577 139z m-28 -301 c80 -33 150 -137 149 -223 0 -52 -25 -126
-54 -161 -11 -13 -41 -41 -68 -62 -36 -29 -47 -45 -47 -66 0 -34 12 -45 89
-82 116 -54 196 -154 228 -284 l17 -68 -29 -23 c-16 -12 -56 -36 -90 -52 -213
-104 -471 -91 -678 35 -55 33 -58 51 -26 145 42 127 124 211 261 267 74 31 78
88 9 135 -72 50 -111 124 -111 211 0 30 5 66 11 82 51 138 202 203 339 146z"/>
<path d="M3156 409 c-46 -37 -26 -85 49 -118 l30 -13 -45 -20 c-381 -167 -858
-169 -1245 -7 -125 52 -150 57 -175 34 -20 -18 -26 -60 -12 -82 14 -21 173
-90 292 -126 308 -93 626 -101 935 -22 72 18 169 48 218 68 48 19 87 34 87 32
0 -1 -7 -21 -15 -44 -17 -49 -7 -87 27 -100 54 -20 73 2 127 142 46 121 50
150 22 174 -19 16 -236 103 -257 103 -6 0 -23 -9 -38 -21z"/>
</g>
</svg>
