<?xml version="1.0" standalone="no"?>
<!DOCTYPE svg PUBLIC "-//W3C//DTD SVG 20010904//EN"
 "http://www.w3.org/TR/2001/REC-SVG-20010904/DTD/svg10.dtd">
<svg version="1.0" xmlns="http://www.w3.org/2000/svg"
 width="512.000000pt" height="512.000000pt" viewBox="0 0 512.000000 512.000000"
 preserveAspectRatio="xMidYMid meet">

<g transform="translate(0.000000,512.000000) scale(0.100000,-0.100000)"
fill="#000000" stroke="none">
<path d="M274 5110 c-12 -5 -32 -23 -45 -41 l-23 -32 213 -2131 c117 -1172
215 -2148 218 -2168 3 -21 17 -49 30 -62 34 -34 1970 -681 2012 -673 40 8
1710 635 1746 656 19 11 34 31 43 56 11 37 432 4210 432 4289 0 50 -18 83 -55
101 -30 13 -273 15 -2292 14 -1242 0 -2268 -4 -2279 -9z m4199 -2232 c-111
-1113 -202 -2030 -203 -2038 0 -11 -234 -103 -805 -317 l-804 -302 -908 303
-908 303 -202 2009 c-111 1105 -202 2021 -202 2037 l-1 27 2118 0 2118 0 -203
-2022z"/>
<path d="M1146 4050 c-66 -20 -98 -83 -72 -145 28 -67 10 -65 671 -65 l595 0
0 -1205 c0 -820 -3 -1205 -10 -1205 -24 0 -516 144 -526 154 -6 6 -30 108 -53
226 -23 118 -47 230 -52 247 -35 112 -209 87 -209 -30 0 -36 108 -564 120
-587 6 -11 21 -26 33 -34 12 -8 198 -65 412 -126 378 -109 391 -111 430 -98
29 9 45 23 58 48 16 33 17 115 15 1397 l-3 1361 -24 26 c-14 14 -41 30 -60 36
-45 12 -1284 12 -1325 0z"/>
<path d="M2865 4053 c-11 -2 -31 -9 -43 -16 -53 -26 -52 -14 -52 -738 l0 -671
34 -34 34 -34 381 0 c210 0 381 -2 381 -4 0 -11 -179 -979 -182 -981 -2 -1
-129 -44 -283 -95 -154 -51 -292 -99 -307 -107 -33 -16 -58 -60 -58 -101 0
-40 33 -79 78 -92 34 -10 62 -2 386 107 286 96 353 123 368 143 13 18 49 195
129 636 122 673 120 641 56 688 -28 20 -41 21 -418 24 l-389 3 0 529 0 530
410 0 c273 0 410 -3 410 -10 0 -6 -16 -76 -37 -156 -42 -171 -40 -203 17 -242
45 -31 94 -24 131 16 21 23 37 74 84 263 41 164 56 243 51 262 -10 40 -49 73
-94 81 -41 6 -1055 6 -1087 -1z"/>
</g>
</svg>
