<?xml version="1.0" standalone="no"?>
<!DOCTYPE svg PUBLIC "-//W3C//DTD SVG 20010904//EN"
 "http://www.w3.org/TR/2001/REC-SVG-20010904/DTD/svg10.dtd">
<svg version="1.0" xmlns="http://www.w3.org/2000/svg"
 width="1216.000000pt" height="675.000000pt" viewBox="0 0 1216.000000 675.000000"
 preserveAspectRatio="xMidYMid meet">

<g transform="translate(0.000000,675.000000) scale(0.100000,-0.100000)"
fill="#000000" stroke="none">
<path d="M0 3375 l0 -3375 6080 0 6080 0 0 3375 0 3375 -6080 0 -6080 0 0
-3375z m6355 1509 c252 -40 477 -144 675 -315 41 -35 156 -143 255 -239 234
-228 328 -290 495 -325 156 -33 336 -12 470 54 126 63 258 169 336 270 21 28
39 49 41 47 8 -8 -80 -253 -118 -330 -120 -240 -298 -426 -505 -530 -373 -185
-938 -181 -1317 10 -148 75 -247 155 -507 409 -201 196 -295 269 -402 312
-158 64 -353 70 -509 15 -48 -17 -100 -38 -115 -48 -113 -69 -150 -99 -236
-186 -54 -54 -98 -94 -98 -89 0 5 16 56 36 113 116 332 302 565 565 707 243
131 593 178 934 125z m-1347 -1524 c210 -22 429 -100 597 -213 96 -65 149
-111 345 -302 262 -256 354 -321 517 -367 61 -17 104 -21 198 -21 107 0 130 3
211 31 142 48 223 101 357 233 64 64 117 115 117 114 0 -19 -89 -257 -119
-319 -121 -250 -313 -444 -545 -552 -333 -153 -863 -155 -1209 -3 -174 77
-296 168 -537 404 -297 290 -385 350 -572 386 -120 23 -171 24 -279 3 -178
-33 -367 -149 -494 -303 -27 -33 -51 -59 -52 -57 -1 1 6 31 16 67 129 439 416
743 807 853 182 51 427 68 642 46z"/>
</g>
</svg>
